<?xml version="1.0" encoding="UTF-8"?><svg id="uuid-e717015b-6dcd-4e0c-a4eb-56954c18cb09" xmlns="http://www.w3.org/2000/svg" width="738.13" height="514.12" viewBox="0 0 738.13 514.12"><g id="uuid-6f9d3bb8-c90d-41b0-b68b-629fdabac82c"><g id="uuid-2da2cb25-66a4-4517-bd55-88366fbe1435"><path d="m408.21,28.55H4.84c-1.58,0-2.86,1.28-2.86,2.86s1.28,2.86,2.86,2.86h362.41v10.18H26.77v12h-11.82c-1.3,0-2.36,1.06-2.36,2.36s1.06,2.36,2.36,2.36h11.82v4.22h-11.82c-1.3,0-2.36,1.06-2.36,2.36s1.06,2.36,2.36,2.36h11.82v4.22h-11.82c-1.3,0-2.36,1.06-2.36,2.36s1.06,2.36,2.36,2.36h11.82v4.22h-11.82c-1.3,0-2.36,1.06-2.36,2.36s1.06,2.36,2.36,2.36h11.82v285.31h359.5V87.99h11.82c1.3,0,2.36-1.06,2.36-2.36s-1.06-2.36-2.36-2.36h-11.82v-4.22h11.82c1.3,0,2.36-1.06,2.36-2.36s-1.06-2.36-2.36-2.36h-11.82v-4.22h11.82c1.3,0,2.36-1.06,2.36-2.36s-1.06-2.36-2.36-2.36h-11.82v-4.22h11.82c1.3,0,2.36-1.06,2.36-2.36s-1.06-2.36-2.36-2.36h-11.82v-12h-16.32v-10.18h38.26c1.58,0,2.86-1.28,2.86-2.86s-1.28-2.86-2.86-2.86h0Zm-258.57,54.73v-4.22h111.73v4.22h-111.73Zm111.73,4.72v279.58h-111.73V87.99h111.73Zm0-26.82v4.22h-111.73v-4.22h111.73Zm-111.73-4.72v-6.27h111.73v6.27h-111.73Zm111.73,13.66v4.22h-111.73v-4.22h111.73Zm5.73,8.94h100.16v4.22h-100.16v-4.22Zm0-4.72v-4.22h100.16v4.22h-100.16Zm0-8.94v-4.22h100.16v4.22h-100.16Zm0-8.94v-6.27h100.16v6.27h-100.16Zm-234.59-6.27h111.4v6.27H32.5v-6.27h.01Zm0,10.99h111.4v4.22H32.5v-4.22h.01Zm0,8.94h111.4v4.22H32.5v-4.22h.01Zm0,8.94h111.4v4.22H32.5v-4.22h.01Zm0,8.94h111.4v279.58H32.5V87.99h.01Zm348.04,279.58h-113.45V87.99h100.16v118.79l-5.94,21.94,14.71.14-6.07-22.09v-118.79h10.59v279.6Zm-13.05-151.37c.24.37.64.62,1.11.62s.89-.27,1.13-.66l2.74,9.97-7.64-.07,2.67-9.86h0Zm13.05-132.93h-10.59v-4.22h10.59v4.22Zm0-8.94h-10.59v-4.22h10.59v4.22Zm0-8.94h-10.59v-4.22h10.59v4.22Zm0-15.21v6.27h-10.59v-6.27h10.59Z" style="fill:#fff; isolation:isolate; opacity:.4;"/><rect y="365.33" width="413.05" height="15.33" style="fill:#51bed5;"/><ellipse cx="177.67" cy="503.9" rx="60.96" ry="10.22" style="fill:#b4dee7;"/><ellipse cx="573.01" cy="370.21" rx="117.54" ry="11.19" style="fill:#b4dee7;"/><path d="m178.68,211.67c0-1.26,1.37-2.17,2.75-1.95l5.96.97s3.81.46,3.63,1.68c-.18,1.22-1.48,1.23-3.6,1.36-2.12.13-6.86.08-6.86.08,0,0-1.87-.57-1.89-2.1v-.05h0Z" style="fill:#f7bd9d;"/><path d="m178.82,219.45c-.31-1.17.77-2.38,2.16-2.54l6-.68s3.79-.58,3.93.61c.14,1.18-1.11,1.54-3.12,2.22-2.01.68-6.6,1.89-6.6,1.89,0,0-1.95-.03-2.35-1.45,0,0,0-.03,0-.04h0Z" style="fill:#f7bd9d;"/><path d="m180.18,222.77c-.4-.98.41-2.15,1.6-2.45l5.17-1.3s3.26-.95,3.5.06c.25,1.01-.8,1.46-2.49,2.29s-5.56,2.41-5.56,2.41c0,0-1.71.2-2.22-.98,0,0,0-.02,0-.04h0Z" style="fill:#f7bd9d;"/><path d="m178.37,215.83c-.18-1.32,1.16-2.49,2.71-2.49l6.68.03s4.25-.14,4.24,1.16c0,1.31-1.43,1.53-3.73,2.01s-7.5,1.21-7.5,1.21c0,0-2.13-.29-2.39-1.89v-.05.02Z" style="fill:#f7bd9d;"/><path d="m129.61,255.77l-4.09,15.08-.08.31-47.56-9.25-20.63-5.43c-5.09-1.26-9.88-8.03-10.46-13.24-.37-3.34.66-6.16,2.31-8.49,4.28-6.05,12.29-8.18,19.16-5.37l12.55,5.12,6.06,2.64,31.74,13.84,11.01,4.8h-.01Z" style="fill:#f7bd9d;"/><path d="m166.6,226.88l-46,26.91c-4.16,2.55-5.74,7.92-3.44,12.22.1.19.21.38.33.58,2.99,4.96,9.8,5.91,14.14,2.08l39.9-35.13c1.94-1.71,2.02-4.29.27-6.18h0c-1.49-1.61-3.33-1.62-5.2-.47h0Z" style="fill:#f7bd9d;"/><path d="m161.63,229.83l8.15-4.91,6.68-11.65,6.51-2.73,7.7,3.04s-1.54,2.8-4.7,2.66c-1.72-.08-2.36-.79-2.36-.79l-2.07,2.31s-.33,7.43-5.43,12.65c0,0-2.56,1.03-5.86,4.35-1.56,1.58-8.61-4.9-8.61-4.9v-.03Z" style="fill:#f7bd9d;"/><path d="m86.85,237.14l-8.99,24.78-20.63-5.43c-5.09-1.26-9.88-8.03-10.46-13.24-.37-3.34.66-6.16,2.31-8.49,4.28-6.05,12.29-8.18,19.16-5.37l12.55,5.12,6.06,2.64h0Z" style="fill:#00c4ba;"/><path d="m173.89,215.19c-1.42,1.9-2.62,4.03-3.03,5.4-.29.97-1.08,4.33-1.08,4.33l9.53-9.08c-.78-.79-.19-2.81.5-5.85.68-3.04-2.62-3.92-2.62-3.92,0,0-1.21,6.32-3.3,9.12h0Z" style="fill:#f7bd9d;"/><path d="m66.89,156.17c-.02.15-.03.24-.03.24l-11.87,11.97s-1.07-.08-2.68-.31c-1.32-.19-3-.49-4.76-.94-4.37-1.11-9.22-3.16-10.13-6.82-1.73-6.92,13.42-22.94,22.51-21.21,5.5,1.05,6.88,7.17,7.11,11.84.12,2.49-.08,4.57-.16,5.25v-.02Z" style="fill:#e74d64;"/><path d="m52.31,168.06l14.57-11.89c.08-.68.28-2.76.16-5.25-3.5-.23-8.34.44-12.85,4.45-4.44,3.95-6.08,8.42-6.65,11.74l4.76.94h0Z" style="fill:#015d9e;"/><path d="m44.05,176.46c-.97,0-1.86-.5-2.65-1.5-.86-1.09-1.1-2.26-.7-3.5,1.26-3.93,8.86-7.29,12.13-8.23l.96-.28-.35.94c-.18.48-4.48,11.82-8.93,12.52-.16.02-.31.04-.46.04h0Zm8.06-11.94c-3.64,1.25-9.47,4.2-10.45,7.25-.29.91-.12,1.74.53,2.56.68.86,1.39,1.21,2.16,1.09,2.92-.46,6.28-7.3,7.75-10.9h.01Z" style="fill:#015d9e;"/><path d="m42.39,170.66c-.5,0-.95-.08-1.34-.26-.83-.39-1.29-1.17-1.37-2.3-.08-1.06.3-1.94,1.08-2.55,2.48-1.93,8.48-.84,11,0l.95.31-.82.58c-.69.49-6.1,4.23-9.5,4.23h0Zm2.68-5.19c-1.52,0-2.89.23-3.7.86-.52.41-.75.96-.69,1.68.06.76.32,1.24.8,1.46,1.87.88,6.48-1.68,8.94-3.28-1.51-.39-3.53-.72-5.34-.72h0Z" style="fill:#015d9e;"/><path d="m64.64,200.56s-10.6.11-14.87-10.65c-9.21-23.18,12.04-38.19,22.27-37.94,16.91.41,22.68,18.14,22.68,18.14l-30.08,30.44h0Z" style="fill:#e74d64;"/><path d="m74.65,208.15l-2.51,13.28-2.26,11.99c-13.99,3.71-20.99-8.09-20.99-8.09,3.39-7.19,6.78-18.48,8.84-25.9,1.22-4.42,1.97-7.47,1.97-7.47l1.69-.72,3.57-1.52,9.69,18.43Z" style="fill:#f7bd9d;"/><path d="m74.65,208.15l-2.51,13.28c-.92-.31-1.77-.85-2.48-1.58l-7.71-7.94c-1.17-1.2-1.86-2.83-1.92-4.56-.06-1.64-.08-3.93.08-6.57-.73-.42-1.57-.86-2.38-1.35,1.22-4.42,1.97-7.47,1.97-7.47l1.69-.72,3.57-1.52,9.69,18.43h0Z" style="fill:#ed8758; isolation:isolate; opacity:.5;"/><path d="m311.17,365.18h-54.03l-5.26-9.52-3.76-6.79,11.46-10.45s13.56,6.49,17.28,7.54c20.43,5.75,28.27,4.43,31.72,7.88,4.04,4.04,2.59,11.35,2.59,11.35h0Z" style="fill:#2e76b8;"/><path d="m259.59,338.42l-11.46,10.45h-.05c-.36-.11-5.11-1.77-11.83-4.25-15.58-5.75-41.74-15.93-48.35-21.64-12.31-10.63-15.49-14.63-15.49-14.63l-57.68,52.74c-3.01,2.65-6.89,4.11-10.9,4.11h-16.79c-6.33,0-12.1-3.62-14.85-9.32l-11-17.64c17.53-3.71,31.34-20.9,31.34-20.9l76.21-42.35c5.19-2.89,11.69-1.74,15.58,2.76l63.77,51.41,11.5,9.27h0Z" style="fill:#015d9e;"/><path d="m259.59,338.42l-11.46,10.45h-.03s0-.01-.02-.01c-.36-.11-5.11-1.77-11.83-4.25l11.84-15.46,11.5,9.27h0Z" style="fill:#f7bd9d;"/><path d="m173.87,271.97l-7.58-1.64,15.27-70.38h0c4.18.91,6.84,5.03,5.93,9.22l-13.62,62.81h0Z" style="fill:#233467;"/><path d="m169.06,270.32l4.93,1.07-.12.57-7.58-1.64,15.26-70.38c.93.2,1.79.56,2.54,1.05l-15.04,69.34h.01Z" style="fill:#21274d;"/><path d="m170.18,265.1l3.77,6.77-56.17,31.24c-3.74,2.08-8.46.74-10.54-3.01h0l62.94-35.01h0Z" style="fill:#233467;"/><path d="m66.26,186.52s-4.05-6.36-8.63-5.19c-4.58,1.17-2.88,12.19,1.42,15.78s6.99-1.6,6.99-1.6l.22-8.99h0Z" style="fill:#f7bd9d;"/><path d="m101.18,184.69l-9.28,22.72c-2.21,5.41-6.83,9.46-12.48,10.95l-.43.11c-2.11.55-4.35-.03-5.91-1.55l-7.56-7.34c-1.14-1.11-1.82-2.62-1.88-4.21-.23-5.96.25-21.67,9.01-30.17,0,0,24.82-3.65,28.53,9.48h0Z" style="fill:#f7bd9d;"/><path d="m72.94,160.73s27.1-13.71,35.26,4.9c8.16,18.61-3.59,24.16-3.59,24.16,0,0-6.63-19.58-33.4-14.03,0,0-3.82-8.16,1.73-15.02h0Z" style="fill:#e74d64;"/><path d="m106.36,191.24c-.17,0-.33-.08-.43-.23-.15-.23-.08-.55.15-.7.48-.31,11.74-7.81,4.46-22.55-3.58-7.24-9.42-10.83-17.37-10.72-5.99.09-10.99,2.38-11.04,2.4-.25.12-.55,0-.67-.25-.12-.25,0-.55.25-.67.21-.1,20.76-9.38,29.74,8.79,7.69,15.56-4.69,23.76-4.82,23.84-.08.05-.18.08-.27.08h0Z" style="fill:#e74d64;"/><path d="m67.08,197.71c-.26,0-.5-.15-.6-.4-5.66-13.52,9.47-30.81,10.11-31.54.24-.27.65-.29.92-.06.27.24.29.65.06.92-.15.17-15.23,17.41-9.89,30.17.14.33-.02.71-.35.85-.08.03-.17.05-.25.05h0Z" style="fill:#e74d64;"/><path d="m73.05,174.19s-6.28,7.87-3.06,16.88c0,0-.44-6.96,12.6-18.54,13.04-11.57-9.54,1.66-9.54,1.66Z" style="fill:#e74d64;"/><path d="m95.85,267.77s-7.59-7.15-17.79-23.13c-4.9-7.66-6.31-13.69-6.31-13.69,0,0-21.94-4.27-22.85-5.61,0,0-1.9.91-4.4,3.03-.94.8-1.98,1.78-3.03,2.95-3.92,4.37-8.06,11.41-8.75,21.99-.3,4.63-.17,10.24.47,16.42,2.2,21.69,9.76,41.96,27.85,68.51,0,0,15.22.24,28.54-16.96,2.15-1.01,3.3-2.3,2.81-3.94,0-.02-.01-.03-.02-.05-.01-.05-.03-.1-.04-.14-7.87-13.65-3.72-31.99-3.72-31.99,0,0,3.44-3.02,5.6-8.17.14-.35.29-.71.42-1.08.05-.12.09-.25.13-.37.26-.73.47-1.44.62-2.11h-.01c.4-1.74.61-3.63.51-5.66h-.03Z" style="fill:#36d9ba;"/><path d="m48.89,225.34l2.21-5.18s3.21,10,19.68,8.94l-.91,4.32s-4.22,3.1-12.95-.71c-6.83-2.98-8.04-7.38-8.04-7.38h.01Z" style="fill:#00c4ba;"/><path d="m150.94,478.38l6.03,7.97,11.75,15.5c2.16,2.85,5.54,4.53,9.11,4.53h18.92s-1.7-11.88-16.97-13.15h0c-.25-.34-8.89-11.63-7.63-23.33l-11.79-6.43-4.37,6.88-.24.38-4.76,7.57-.05.08h0Z" style="fill:#2e76b8;"/><path d="m196.12,363.75l-21.01,92.69-3.04,13.41-12.13-3.71s0-.16-.03-.46c-.11-1.47-.45-6.37-.85-12.91-.97-15.97-2.25-41.74-1.19-51.37,2.41-21.69,7.82-36.11,7.82-36.11l-62.21.03.84-44.78,79.77,23.2c8.62,2.5,13.85,11.22,12.02,20h0Z" style="fill:#2e76b8;"/><path d="m104.33,320.55l-.66,44.78-19.83-.13c-6.33,0-12.1-3.62-14.85-9.32l-7.97-17.64c17.53-3.71,31.34-20.9,31.34-20.9l11.96,3.2h.01Z" style="fill:#2e76b8;"/><path d="m102.96,350.3h-.02c-.28-.01-.5-.24-.49-.52.41-11.52-4.43-15.29-4.48-15.33-.22-.17-.27-.48-.1-.71.17-.22.48-.27.71-.1.22.16,5.31,4.13,4.88,16.17,0,.27-.23.49-.5.49h0Z" style="fill:#015d9e;"/><path d="m175.11,456.44l-3.04,13.41-12.46-5.64c-.11-1.47-.15-4.89-.55-11.43l16.05,3.66Z" style="fill:#f7bd9d;"/><path d="m79.05,312l-14.44,5.96-.3.12-21.7-43.32-8.29-19.66c-2.11-4.81.33-12.73,4.11-16.37,2.42-2.33,5.29-3.24,8.14-3.35,7.41-.3,13.98,4.75,15.95,11.9l3.6,13.06,1.61,6.42,8.41,33.59,2.92,11.65h0Z" style="fill:#f7bd9d;"/><path d="m117.8,283.86l-49.55,19.6c-4.5,1.89-6.88,6.95-5.26,11.56.07.21.15.41.24.62,2.2,5.36,8.79,7.34,13.66,4.21l44.78-28.66c2.17-1.39,2.65-3.93,1.2-6.07h0c-1.23-1.82-3.05-2.1-5.07-1.25h0Z" style="fill:#f7bd9d;"/><path d="m112.45,286.02l8.8-3.62,8.37-10.5,10.85-1.1,9.88,4.6s-1.95,2.53-5.05,1.91c-1.68-.34-4.94-1.57-4.94-1.57l-6.4,1.35s-1.46,7.3-7.29,11.67c0,0-2.69.63-6.45,3.41-1.78,1.32-7.77-6.16-7.77-6.16h0Z" style="fill:#f7bd9d;"/><path d="m133.14,279.63c.64-.59,6.25-1.18,6.25-1.18,0,0,3.6,1.76,5.24.77,1.64-.99,2.41-1.45,2.41-1.45l-7.35-3.04-7.6,1.74,1.05,3.15h0Z" style="fill:#f7bd9d;"/><path d="m149.22,266.88l-8.77-.69-8.29,6.1,3.37,2.82,5.89-5.33s7.34.8,7.8-2.9h0Z" style="fill:#f7bd9d;"/><path d="m67.73,266.76l-25.12,8-8.29-19.66c-2.11-4.81.33-12.73,4.11-16.37,2.42-2.33,5.29-3.24,8.14-3.35,7.41-.3,13.98,4.75,15.95,11.9l3.6,13.06,1.61,6.42Z" style="fill:#00c4ba;"/><path d="m354.63,284.01c-.09,0-.18-.02-.26-.07-.24-.14-.32-.45-.17-.69.51-.84,12.64-20.7,27.69-21.25,6.94-.25,13.35,3.69,19.05,11.74.16.23.11.54-.12.7-.23.16-.54.11-.7-.12-5.49-7.75-11.61-11.55-18.19-11.31-14.51.53-26.75,20.56-26.87,20.76-.09.16-.26.24-.43.24h0Z" style="fill:#015d9e;"/><path d="m396.58,331.52l1.58-3.44c.08-.16,7.45-16.71-1.93-40.47-9.3-23.56-19.23-23.94-19.33-23.95l-2.39-.03,2.19-.94c.23-.1,5.78-2.43,12.99-2.12,6.68.3,16.05,3.05,22.76,14.46,5.31,9.03,4.66,21.17-1.89,35.11-4.92,10.47-11.5,18.39-11.56,18.47l-2.43,2.9h.01Zm-17.8-68.49c3.45,1.15,11.11,5.75,18.39,24.21,7.22,18.29,4.66,32.41,2.94,38.29,5.72-7.75,21.88-32.29,11.48-49.98-5.2-8.83-12.56-13.53-21.9-13.96-4.71-.22-8.75.77-10.91,1.44Z" style="fill:#015d9e;"/><path d="m350.35,288.14s-.08,0-.13-.02c-.27-.07-.43-.35-.36-.62.04-.16,4.03-15.9,3.6-36.96-.39-19.41-4.71-47.43-23.09-70.74-.17-.22-.14-.54.08-.71.22-.17.54-.14.71.08,18.56,23.53,22.92,51.8,23.31,71.37.42,21.19-3.59,37.04-3.63,37.2-.06.23-.26.38-.49.38v.02Z" style="fill:#015d9e;"/><path d="m351.34,223.28s-22.17-17.6-32.71-38.03c-10.54-20.43-16.92-41.51-16.92-41.51,0,0,38.31,20.43,45.98,39.59,7.66,19.16,3.65,39.95,3.65,39.95Z" style="fill:#015d9e;"/><path d="m357.11,288.25c-.27,0-.49-.21-.5-.48-1.39-24.96-12.71-44.1-21.98-55.76-10.04-12.64-19.85-19.45-19.95-19.52-.23-.16-.29-.47-.13-.7s.47-.29.7-.13c.1.07,10.04,6.97,20.17,19.73,9.35,11.78,20.79,31.11,22.19,56.33.02.28-.2.52-.48.53h-.03.01Z" style="fill:#015d9e;"/><path d="m343.06,269.56c-.68,0-12.01-.51-34.16-32.58l-.68-.99,1.19.2c.08,0,8.06,1.43,16.2,6.15,7.55,4.37,16.79,12.55,17.96,26.67l.04.54h-.56,0Zm-32.6-32.11c18.76,26.87,29.56,30.53,32.05,31.02-1.08-10.69-6.92-19.18-17.38-25.24-6.12-3.55-12.15-5.2-14.67-5.78h0Z" style="fill:#fff;"/><path d="m347.85,295.79c-.27,0-.5-.22-.51-.49-.94-32.61-16.97-41.08-17.13-41.16-.25-.13-.35-.43-.22-.68s.43-.35.68-.22c.17.09,4.28,2.21,8.53,8.49,3.9,5.75,8.65,16.24,9.15,33.55,0,.28-.21.51-.49.52h-.01,0Z" style="fill:#fff;"/><path d="m364.13,287.93h-.06c-.28-.03-.47-.29-.44-.56.01-.12,1.51-12.06,7.29-28.21,5.33-14.9,15.51-36.56,33.72-55.1.2-.2.52-.2.71,0,.2.2.2.52,0,.72-18.07,18.4-28.18,39.9-33.48,54.71-5.75,16.05-7.23,27.9-7.25,28.02-.03.26-.25.44-.5.44v-.02Z" style="fill:#fff;"/><path d="m350.72,222.48c-.25,0-.47-.19-.5-.44-3.57-27.46-29.82-54.89-30.09-55.16-.19-.2-.19-.52.01-.71s.52-.19.71,0c.27.28,26.75,27.94,30.36,55.74.04.28-.16.53-.44.57h-.07.02Z" style="fill:#fff;"/><rect x="342.53" y="282.97" width="29.8" height="82.36" style="fill:#f9bb5b;"/><path d="m372.86,293.04h-30.97c-.28,0-.51-.23-.51-.51s.23-.51.51-.51h30.97c.28,0,.51.23.51.51s-.23.51-.51.51Z" style="fill:#f08711;"/><path d="m372.86,297.3h-30.97c-.28,0-.51-.23-.51-.51s.23-.51.51-.51h30.97c.28,0,.51.23.51.51s-.23.51-.51.51Z" style="fill:#f08711;"/><polygon points="352.04 365.33 331.43 365.33 327.44 326.59 356.03 326.59 352.04 365.33" style="fill:#015d9e;"/><path d="m38.79,338.96s-17.13.66-15.89-19.69c.96-15.73,17.61-11.05,19.34-25.21s-29.01-10.36-28.32,20.38c.69,30.74,24.18,27.63,24.18,27.63l.69-3.11h0Z" style="fill:#f9bb5b;"/><path d="m111.47,365.33H32.29s-7.66-22.14,4.26-30.23c9.03-6.13,16.35.94,24,6.95,2.44,1.92,4.92,3.73,7.5,4.97,6.33,3.04,17.54,5.32,26.8,7.31,6.31,1.35,11.72,2.55,14.06,3.76,5.81,2.99,2.56,7.24,2.56,7.24Z" style="fill:#f9bb5b;"/><path d="m94.85,354.33c-3.47,4.65-9.04,7.67-15.32,7.67-10.5,0-19.02-8.44-19.02-18.86,0-.37,0-.73.03-1.09,2.44,1.92,4.92,3.73,7.5,4.97,6.33,3.04,17.54,5.32,26.8,7.31h.01Z" style="fill:#f9bb5b; isolation:isolate; opacity:.5;"/><path d="m86.59,330.88s3.52-6.86,5.56-7.65c1.41-.55,3.78,7.41,2.18,12.53s-7.74-4.88-7.74-4.88Z" style="fill:#f9bb5b;"/><ellipse cx="80.93" cy="343.12" rx="15.99" ry="15.85" style="fill:#f9bb5b;"/><path d="m71.65,330.07s-5.72-5.17-7.9-5.19c-1.52-.02-.92,8.27,2.39,12.5s5.51-7.3,5.51-7.3h0Z" style="fill:#f9bb5b;"/><path d="m85.08,338.21c-1.37-.11-3.3-.14-5.09.29-.82.2-1.07,1.26-.44,1.82l2.68,2.36c.45.4,1.15.34,1.53-.14l2.07-2.62c.52-.66.09-1.64-.75-1.71Z" style="fill:#fff;"/><path d="m55.2,365.21c0-6.81-4.66-7.47-4.86-7.5l-.47-.06.03-.47c.22-3.47-.55-6.21-2.31-8.15-2.54-2.82-6.34-3-6.38-3l.04-1.01c.17,0,4.24.19,7.08,3.32,1.87,2.07,2.75,4.92,2.6,8.47,1.37.37,5.27,1.99,5.28,8.4,0,0-1.01,0-1.01,0Z" style="fill:#fff;"/><path d="m494.62,176.49h85.09c8.26,0,14.97,6.71,14.97,14.97v2.28h-115.03v-2.28c0-8.26,6.71-14.97,14.97-14.97h0Z" style="fill:#fff;"/><rect x="484.63" y="227.87" width="173.32" height="39.88" style="fill:#39add4;"/><path d="m479.65,229.79l182.14-2.81v-23.07c0-4.55-3.69-8.24-8.24-8.24h-173.89v34.13h0Z" style="fill:#fff;"/><polygon points="479.65 229.79 661.78 226.98 661.78 212.72 479.65 212.72 479.65 229.79" style="fill:#fff;"/><polygon points="479.65 229.79 657.95 229.79 661.78 226.98 479.65 226.98 479.65 229.79" style="fill:#b3c6d4;"/><path d="m552.08,204.61h37.27c3.05,0,5.52,2.47,5.52,5.52v2.6h-48.31v-2.6c0-3.05,2.47-5.52,5.52-5.52h0Z" style="fill:#9eb7c6;"/><path d="m592.82,208.33v3.63h-44.22v-3.63c0-1.21.98-2.19,2.19-2.19h39.85c1.21,0,2.19.98,2.19,2.19h-.01Z" style="fill:#b9cfd6;"/><rect x="479.65" y="211.32" width="182.14" height="2.81" style="fill:#b3c6d4;"/><polygon points="661.78 267.75 479.65 267.75 484.63 260.85 657.95 260.85 661.78 267.75" style="fill:#b3c6d4;"/><rect x="524.51" y="232.47" width="104.68" height="28.38" style="fill:#1c5677;"/><path d="m563.24,242.33h26.84c0,2.76-2.24,5-5,5h-16.85c-2.76,0-5-2.24-5-5h0Z" style="fill:#2e7099;"/><polygon points="638.78 260.85 629.19 260.85 629.19 232.47 638.78 229.79 638.78 260.85" style="fill:#2192bf;"/><polygon points="514.92 260.85 524.51 260.85 524.51 232.47 514.92 229.79 514.92 260.85" style="fill:#2192bf;"/><path d="m597.46,255.29h-41.99c-1.22,0-2.2-.99-2.2-2.2h0c0-1.22.99-2.2,2.2-2.2h41.99c1.22,0,2.2.99,2.2,2.2h0c0,1.22-.99,2.2-2.2,2.2Z" style="fill:#4089b1;"/><circle cx="557.11" cy="244.91" r="3.84" style="fill:#2e7099;"/><circle cx="596.05" cy="244.91" r="3.84" style="fill:#2e7099;"/><rect x="524.51" y="232.47" width="104.68" height="4.03" style="fill:#19456d;"/><path d="m528.57,236.5h95.44c.66,0,1.19.53,1.19,1.19h0c0,4.21-3.42,7.63-7.63,7.63h-81.36c-4.21,0-7.63-3.42-7.63-7.63v-1.19h-.01Z" style="fill:#4089b1;"/><path d="m479.65,267.75h182.14v79.74c0,11.65-9.46,21.1-21.1,21.1h-139.93c-11.65,0-21.1-9.46-21.1-21.1v-79.74h-.01Z" style="fill:#fff;"/><rect x="479.65" y="327.63" width="182.14" height="3.75" style="fill:#b3c6d4;"/><polygon points="629.19 232.47 524.51 232.47 514.92 229.79 638.78 229.79 629.19 232.47" style="fill:#177bad;"/><rect x="457.79" y="207.93" width="59.43" height="45.63" rx="16.44" ry="16.44" style="fill:#16375f;"/><rect x="463.92" y="212.72" width="46.78" height="22.43" rx="9.04" ry="9.04" style="fill:#54acd3;"/><rect x="465.46" y="214.26" width="43.71" height="19.36" rx="4.66" ry="4.66" style="fill:#72bfea;"/><path d="m483.08,248.97h0c-2.44,0-4.42-1.98-4.42-4.42h0c0-2.44,1.98-4.42,4.42-4.42h0c2.44,0,4.42,1.98,4.42,4.42h0c0,2.44-1.98,4.42-4.42,4.42Z" style="fill:#c5da5b;"/><rect x="644.31" y="246.64" width="8.85" height="8.85" rx="4.42" ry="4.42" style="fill:#c5da5b;"/><path d="m470.27,248.97h0c-2.44,0-4.42-1.98-4.42-4.42h0c0-2.44,1.98-4.42,4.42-4.42h0c2.44,0,4.42,1.98,4.42,4.42h0c0,2.44-1.98,4.42-4.42,4.42Z" style="fill:#ef5a7f;"/><rect x="466.99" y="215.79" width="12.08" height="12.31" style="fill:#99d9ee;"/><rect x="495.94" y="215.79" width="12.08" height="12.31" style="fill:#99d9ee;"/><rect x="481.46" y="216.07" width="12.08" height="12.31" style="fill:#99d9ee;"/><path d="m498.68,243.07h-3.31c-.99,0-1.8-.8-1.8-1.8h0c0-.99.8-1.8,1.8-1.8h3.31c.99,0,1.8.8,1.8,1.8h0c0,.99-.8,1.8-1.8,1.8Z" style="fill:#f9f4aa;"/><path d="m650.39,238.29h-3.31c-.99,0-1.8-.8-1.8-1.8h0c0-.99.8-1.8,1.8-1.8h3.31c.99,0,1.8.8,1.8,1.8h0c0,.99-.8,1.8-1.8,1.8Z" style="fill:#f9f4aa;"/><path d="m647.08,240.84h3.3c.99,0,1.8.8,1.8,1.79h0c0,.99-.81,1.79-1.8,1.79h-3.3c-.99,0-1.8-.8-1.8-1.79h0c0-.99.81-1.79,1.8-1.79Z" style="fill:#f9f4aa;"/><path d="m508.4,243.07h-3.31c-.99,0-1.8-.8-1.8-1.8h0c0-.99.8-1.8,1.8-1.8h3.31c.99,0,1.8.8,1.8,1.8h0c0,.99-.8,1.8-1.8,1.8Z" style="fill:#f9f4aa;"/><path d="m498.78,248.78h-3.31c-.99,0-1.8-.8-1.8-1.8h0c0-.99.8-1.8,1.8-1.8h3.31c.99,0,1.8.8,1.8,1.8h0c0,.99-.8,1.8-1.8,1.8Z" style="fill:#f9f4aa;"/><path d="m508.49,248.78h-3.31c-.99,0-1.8-.8-1.8-1.8h0c0-.99.8-1.8,1.8-1.8h3.31c.99,0,1.8.8,1.8,1.8h0c0,.99-.8,1.8-1.8,1.8Z" style="fill:#f9f4aa;"/><path d="m558.09,355.92h25.25c6.37,0,11.53,5.17,11.53,11.53v1.05h-48.31v-1.05c0-6.37,5.17-11.53,11.53-11.53h0Z" style="fill:#b3c6d4;"/><path d="m593.34,365.16v3.35h-45.25v-3.35c0-4.25,3.45-7.71,7.71-7.71h29.84c4.25,0,7.7,3.45,7.7,7.7h0Z" style="fill:#8ba6b6;"/><path d="m588.72,361.83h-36.39c-.81,0-1.46-.65-1.46-1.46h0c0-.81.65-1.46,1.46-1.46h36.39c.81,0,1.46.65,1.46,1.46h0c0,.81-.65,1.46-1.46,1.46Z" style="fill:#b3c6d4;"/><rect x="468.53" y="217.26" width="8.82" height="4.18" style="fill:#fff;"/><rect x="482.9" y="217.26" width="8.82" height="4.18" style="fill:#fff;"/><rect x="497.57" y="217.26" width="8.82" height="4.18" style="fill:#fff;"/><rect x="468.57" y="222.57" width="8.82" height="4.18" style="fill:#fff;"/><rect x="482.95" y="222.57" width="8.82" height="4.18" style="fill:#fff;"/><rect x="497.62" y="222.57" width="8.82" height="4.18" style="fill:#fff;"/><path d="m524.51,232.47v28.38h2.99c12.06-6.98,27.93-14.56,47.37-20.07,20.3-5.76,38.89-7.67,54.32-7.85v-.46h-104.68Z" style="fill:#082132; isolation:isolate; opacity:.29;"/><path d="m547.71,267.75h52.18c0,4.96-4.02,8.98-8.98,8.98h-34.22c-4.96,0-8.98-4.02-8.98-8.98h0Z" style="fill:#2192bf;"/><path d="m598.36,267.75v.73c0,3.7-3.01,6.71-6.71,6.71h-35.69c-3.7,0-6.71-3.01-6.71-6.71v-.73h49.12-.01Z" style="fill:#39add4;"/><path d="m556.52,274.04h-3.31c-.99,0-1.8-.8-1.8-1.8h0c0-.99.8-1.8,1.8-1.8h3.31c.99,0,1.8.8,1.8,1.8h0c0,.99-.8,1.8-1.8,1.8Z" style="fill:#c5da5b;"/><path d="m566.11,274.04h-3.31c-.99,0-1.8-.8-1.8-1.8h0c0-.99.8-1.8,1.8-1.8h3.31c.99,0,1.8.8,1.8,1.8h0c0,.99-.8,1.8-1.8,1.8Z" style="fill:#ef5a7f;"/><path d="m575.69,274.04h-3.31c-.99,0-1.8-.8-1.8-1.8h0c0-.99.8-1.8,1.8-1.8h3.31c.99,0,1.8.8,1.8,1.8h0c0,.99-.8,1.8-1.8,1.8Z" style="fill:#f9f4aa;"/><path d="m647.96,283.98h-11.46c-1.93,0-3.5-1.57-3.5-3.5v-3.55c0-1.93,1.57-3.5,3.5-3.5h11.46c1.93,0,3.5,1.57,3.5,3.5v3.55c0,1.93-1.57,3.5-3.5,3.5Zm-11.46-8.58c-.84,0-1.53.69-1.53,1.53v3.55c0,.84.69,1.53,1.53,1.53h11.46c.84,0,1.53-.69,1.53-1.53v-3.55c0-.84-.69-1.53-1.53-1.53h-11.46Z" style="fill:#b3c6d4;"/><path d="m585.28,274.04h-3.31c-.99,0-1.8-.8-1.8-1.8h0c0-.99.8-1.8,1.8-1.8h3.31c.99,0,1.8.8,1.8,1.8h0c0,.99-.8,1.8-1.8,1.8Z" style="fill:#f9f4aa;"/><path d="m594.48,274.04h-3.31c-.99,0-1.8-.8-1.8-1.8h0c0-.99.8-1.8,1.8-1.8h3.31c.99,0,1.8.8,1.8,1.8h0c0,.99-.8,1.8-1.8,1.8Z" style="fill:#16375f;"/><path d="m653.54,195.66h-4.79v28.38c0,11.5-.06,23.01,0,34.51.05,9.52.21,29.01-.77,52.92-.66,16.2-1.36,22.58-6.14,28.38-6.8,8.27-17.45,9.96-23.01,10.74-21.52,3.01-74.92-.05-139.19,1.46v9.17c0,4.08,3.31,7.39,7.39,7.39h167.37c4.08,0,7.39-3.31,7.39-7.39v-93.46l-3.83-6.9v-31.06l3.83-2.81v-23.07c0-4.55-3.69-8.24-8.24-8.24v-.02Z" style="fill:#161447; isolation:isolate; opacity:.11;"/><polygon points="594.68 186.82 537.16 186.46 532.89 193.74 594.68 193.74 594.68 186.82" style="fill:#2e7099;"/><polygon points="535.58 194.06 538.78 188.76 594.68 188.88 594.68 194.45 535.58 194.06" style="fill:#4089b1;"/><rect x="479.65" y="192.85" width="115.23" height="2.81" style="fill:#b3c6d4;"/><path d="m640.75,127.66s.41,3.5-1.2,12.19c-3.43,18.59-23.32,31.14-23.32,31.14,0,0-3.71-3.12-10.45-5.35-8.28-2.74-14.65-2.46-14.65-2.46,0,0,9.01-8.1,13.56-18.78,6.1-14.31,2.8-27.57,2.8-27.57,0,0,4.28,2.89,11.68,5.98,10.95,4.57,21.58,4.84,21.58,4.84h0Z" style="fill:#f5f5f5;"/><path d="m609.62,94.37s8.22,1.38,21.99-6.84c21.19-12.65,24.43-24.43,24.43-24.43l-11.24-5.37s-9.74,8.67-12.63,10.66c-21.93,15.05-36.23,16.21-36.23,16.21,0,0,13.68,9.77,13.68,9.77Z" style="fill:#f5f5f5;"/><path d="m642.62,27.71s5.49-7.94,16.23-15.67c23.04-16.59,34.71-11.2,34.71-11.2,0,0,.35,3.84,2.8,7.28,3.18,4.47,7.84,6.16,7.84,6.16,0,0-9.88,3.06-19.59,8.4-13.92,7.66-19.82,14.51-22.95,19.03-1.56,2.25-.7-5.72-4.48-9.52-5.06-5.08-14.56-4.48-14.56-4.48Z" style="fill:#f5f5f5;"/><g id="uuid-00904c93-a00a-45ad-955c-dca46afc3933"><g style="isolation:isolate;"><g style="isolation:isolate;"><path d="m474.43,63.82l-31.62,43.97c-1.55,2.16-4.72,2.29-6.45.27l-11.41-13.34-11.24,4.9c-3.5,1.53-7.06-2.17-5.3-5.62l5.94-11.67-12.65-14.8c-2.21-2.58-.5-6.59,2.9-6.77l66.29-3.45c3.4-.18,5.57,3.69,3.54,6.5Zm-3.33-2.4l-66.3,3.46,10.25,11.97,41.88-10.01c.92-.22,1.36,1.1.48,1.46l-36.56,15.34,18.62,21.76,31.62-43.97Zm-48.95,30.05l-4.92-5.75-5.17,10.16,10.1-4.41Z" style="fill:#fff;"/></g></g></g><g id="uuid-be531b83-c95e-4b8f-b301-51359e774831"><g style="isolation:isolate;"><g style="isolation:isolate;"><path d="m738.13,314.01c0,11.7-3.9,15.11-26.33,47.29-.73.98-1.83,1.46-2.92,1.46s-2.19-.49-2.92-1.46c-22.42-32.17-26.33-35.59-26.33-47.29,0-16.09,13.16-29.25,29.25-29.25s29.25,13.16,29.25,29.25Zm-21.25,31.58c14.76-20.92,16.38-23.49,16.38-31.58,0-13.44-10.93-24.38-24.38-24.38s-24.38,10.94-24.38,24.38c0,8.09,1.62,10.66,16.38,31.58,2.35,3.33,5,7.09,8,11.38,2.95-4.23,5.63-8.03,7.99-11.38Zm7.34-38.62c.48.48.48,1.25,0,1.72l-18.96,18.96c-.24.24-.55.36-.86.36s-.62-.12-.86-.36l-9.99-9.99c-.47-.47-.47-1.25,0-1.72l1.72-1.72c.24-.24.55-.36.86-.36h0c.34,0,.64.14.86.36l7.4,7.4,16.37-16.37c.24-.24.55-.36.86-.36h0c.34,0,.64.14.86.36l1.72,1.72Z" style="fill:#36d9ba;"/></g></g></g><path d="m180.61,183.52s.08-2.26.49-5.98" style="fill:none; stroke:#fff; stroke-linecap:round; stroke-miterlimit:10;"/><path d="m182.91,165.88c4.31-21.56,16.54-55.1,50.91-54.19,47.14,1.24,96.6,15.21,147.28-3.42" style="fill:none; stroke:#fff; stroke-dasharray:0 0 0 0 0 0 11.8 11.8; stroke-linecap:round; stroke-miterlimit:10;"/><path d="m386.61,106.12c1.83-.76,3.66-1.56,5.49-2.41" style="fill:none; stroke:#fff; stroke-linecap:round; stroke-miterlimit:10;"/><path d="m485.21,54.49s145.5-26.05,58.53,41.9c-63.85,49.88-27.93,71.83-27.93,71.83" style="fill:none; stroke:#fff; stroke-dasharray:0 0 0 12; stroke-linecap:round; stroke-miterlimit:10;"/></g></g></svg>