<svg xmlns="http://www.w3.org/2000/svg" xmlns:xlink="http://www.w3.org/1999/xlink" viewBox="0 0 224.1 52.23"><defs><style>.cls-1{fill:url(#linear-gradient);}</style><linearGradient id="linear-gradient" y1="26.12" x2="224.1" y2="26.12" gradientUnits="userSpaceOnUse"><stop offset="0" stop-color="#f7941d"/><stop offset="1" stop-color="#f26a29"/></linearGradient></defs><g id="Layer_2" data-name="Layer 2"><g id="Layer_1-2" data-name="Layer 1"><path class="cls-1" d="M69.37,40.37H86.92l3.18-2.62,5-23.53h-9l-3.89,18.3H77.4l3.88-18.3h-9l-5,23.53Zm24.4-7.47h10.08l1.09-5.23H94.85Zm11.1,7.47h9l1.76-8.22h10.46l3.17-2.61,2.69-12.7-2-2.62H110.43Zm12.36-16.06.49-2.24h4.11l-.49,2.24Zm11.93,16.06h9l1.68-7.85h4.49l-1.68,7.85h9l2.05-9.71L152.32,29l2-1.68,2.25-10.46-2.06-2.62h-19.8Zm12.21-15.32.64-3h4.48l-.64,3Zm13.95,15.32H165l5.56-26.15h-9.71Zm13.08,0h9.33l2.43-11.43h.08l4.52,11.43h9.48l5.57-26.15h-9.34L188.38,24h-.08l-4-9.75H174Zm33.89,0H212l3.81-17.93h6.53l1.76-8.22H201.69l-1.76,8.22h6.17ZM56.53,20.48V32.81a2.08,2.08,0,0,1-2.07,2.08h-5v15a2.29,2.29,0,0,1-2.3,2.3H9.4a2.3,2.3,0,0,1-2.3-2.3v-15h-5A2.08,2.08,0,0,1,0,32.81V20.48a2.08,2.08,0,0,1,2.08-2.07h5V2.29A2.3,2.3,0,0,1,9.4,0H47.13a2.29,2.29,0,0,1,2.3,2.29V18.41h5A2.07,2.07,0,0,1,56.53,20.48ZM45.23,28.4H11.31V45.51H45.23Zm0-22.67H11.3V18.41H45.23Zm-4.45,29v-.05a1.33,1.33,0,0,0-1.33-1.32H17.08a1.32,1.32,0,0,0-1.32,1.32v.05a1.32,1.32,0,0,0,1.32,1.32H39.45A1.33,1.33,0,0,0,40.78,34.77Zm0,5.44v0a1.33,1.33,0,0,0-1.33-1.32H17.08a1.32,1.32,0,0,0-1.32,1.32v0a1.33,1.33,0,0,0,1.32,1.33H39.45A1.34,1.34,0,0,0,40.78,40.21Z"/></g></g></svg>